<svg id="Layer_1" data-name="Layer 1" xmlns="http://www.w3.org/2000/svg" viewBox="0 0 214 67.25"><defs><style>.cls-1{fill:#003974;}.cls-2{fill:#4292c1;}.cls-3{fill:#478a57;}.cls-4{fill:#928660;}.cls-5{fill:#6d6e71;}</style></defs><title>logo-geosyntec</title><path class="cls-1" d="M36.27,21.92c-.09,4.39,1,9.45,6.2,9.45,3.33,0,4.93-2,6.11-4.47l1.27.68a8.11,8.11,0,0,1-8.23,5.94c-6.87.09-9.73-4-9.73-10.67,0-6.32,3.11-11,9.7-11,7.7,0,8.51,6,8.51,8.48,0,1.39-.81,1.59-1.69,1.59Zm8-1.59c1.18,0,1.43-.56,1.43-1.35,0-1.65-.46-5.65-4.38-5.65-4.39,0-5,5.27-5,7Z"/><path class="cls-1" d="M73.12,22.68c0,6.84-3.29,10.84-10.12,10.84s-10.08-4-10.08-10.84S56.25,11.85,63,11.85,73.12,15.86,73.12,22.68ZM63,32.05c3.92,0,5.73-3.55,5.73-9.37S66.92,13.33,63,13.33s-5.69,3.54-5.69,9.35S59.16,32.05,63,32.05Z"/><path class="cls-1" d="M88.42,18.22c-.29-2.58-1.73-4.89-4.72-4.89-2.11,0-3.76,1.22-3.79,3.41,0,2.36,2.78,3.25,4.51,3.8,4.34,1.34,6.61,3,6.61,6.74s-2.86,6.24-7.88,6.24a10.35,10.35,0,0,1-6.58-2L76.16,26h1.21c.85,3.58,2.75,6.07,6.16,6.07,2.23,0,3.92-1.36,3.92-3.5,0-2.87-2.65-3.84-4.55-4.43-3.5-1.05-6.33-2.62-6.37-6.12,0-4,3.12-6.15,7.68-6.15a9.64,9.64,0,0,1,5.43,1.44v4.93Z"/><path class="cls-1" d="M142.4,14V27.12c0,3.2,1.34,4.21,2.78,4.21a7.24,7.24,0,0,0,3-.55l.34.88a10.67,10.67,0,0,1-5.39,1.86c-1.48,0-4.69-.51-4.69-4.81V14l.17-1.69,2.57-5.3h1.23v5.3h5.44V14Z"/><path class="cls-1" d="M153.66,21.92c-.09,4.39,1,9.45,6.2,9.45,3.33,0,4.93-2,6.11-4.47l1.26.68A8.08,8.08,0,0,1,159,33.52c-6.88.09-9.75-4-9.75-10.67,0-6.32,3.12-11,9.7-11,7.71,0,8.52,6,8.52,8.48,0,1.39-.81,1.59-1.69,1.59Zm8-1.59c1.18,0,1.43-.56,1.43-1.35,0-1.65-.46-5.65-4.38-5.65-4.39,0-5,5.27-5,7Z"/><path class="cls-1" d="M186.58,26.86l1.22.6a8.12,8.12,0,0,1-8.09,6.06c-6.32,0-9.78-3.59-9.78-10.62,0-5.61,2.57-11,10.25-11,4.55,0,7.32,2.15,7.32,4.08A2.35,2.35,0,0,1,185,18.09c-.8,0-1.05-.42-1.3-1.1-.85-2.28-2.07-3.66-4-3.66-2.9,0-5.39,2.53-5.39,8.8,0,4,1.18,9.2,6.19,9.2C183.59,31.33,185.28,29.81,186.58,26.86Z"/><path class="cls-1" d="M132.82,29.34V18.55c0-4.25-2.31-6.7-6.2-6.7-3.11,0-5.05,1.52-7.67,3.2l-.49-2.7h-10c-.55,1.75-1.21,3.75-1.94,5.89-1.22,3.57-2.6,7.46-3.88,10.93-1.94-5.1-3.62-9.69-5.18-14.12-.26-.75-.34-1.22.63-1.3l1.81-.17V12.35H92.26s6.81,17.46,7.82,20.37a6,6,0,0,1,.35,2.06,9.23,9.23,0,0,1-1,3.59c-.64,1.39-1.39,1.77-1.85,1.77S96.75,40,96,39.25a1.86,1.86,0,0,0-1.27-.59A2.4,2.4,0,0,0,92.87,41c0,1,1.18,2.2,2.95,2.2s3.84-.51,6-6.75c2.54-7.3,6.27-17.19,7.68-20.46.11-.25.84-1.73,2.13-1.73h1.78A1.55,1.55,0,0,1,115,15.8a2.35,2.35,0,0,1,0,.27V33h7.13V31.79c-3-.21-3.16-.29-3.16-2.45V19.48a4.55,4.55,0,0,1,.42-2.32,5.83,5.83,0,0,1,5-3c2.86,0,4.42,1.6,4.42,5.27V33H136V31.79C133,31.58,132.82,31.5,132.82,29.34Z"/><path class="cls-1" d="M26.57,31.75A38.31,38.31,0,0,1,16.48,33.6c-3.86,0-7.71-.48-11-2.8S0,24,0,18.34c0-4.56,1.05-8.07,3.28-11,2.5-3.25,6.89-5.4,13.46-5.4a23.9,23.9,0,0,1,9.43,1.8v6.88H24.85c-.91-4.95-3.72-7.14-8.55-7.14-8.63,0-11.39,7.23-11.39,14.16,0,5.48,1.88,14.42,12,14.42a10.19,10.19,0,0,0,3.85-.66c.93-.34,1.5-.83,1.5-2.37V24.24c0-2.15,0-4,0-4h7.48v1.27c-2.9.31-3.11.52-3.11,2.72Z"/><path class="cls-2" d="M209.52,10.58c-1.63-1-7.08-6.13-11.27-7.08V3.31c0-1.86-3.12-3.31-3.12-3.31a29.87,29.87,0,0,1,10.81,2.83C212,6,214,9.64,214,9.64a8.81,8.81,0,0,1-2.91,1.22A2.55,2.55,0,0,1,209.52,10.58Z"/><path class="cls-3" d="M195.13,0s3.14,1.45,3.12,3.31V3.5c-.12,2.05-1.81,9.19-.56,13.24l-.15.08c-1.61.92-1.37,4.33-1.37,4.33a29.72,29.72,0,0,1-2.87-10.78C193,3.52,195.13,0,195.13,0Z"/><path class="cls-4" d="M197.54,16.82l.15-.08c1.88-1,9-3,11.71-6.23l.12.07a2.55,2.55,0,0,0,1.57.28A8.81,8.81,0,0,0,214,9.64a29.78,29.78,0,0,1-7.86,7.91c-5.77,3.73-10,3.6-10,3.6S195.93,17.74,197.54,16.82Z"/><path class="cls-5" d="M78.11,63.43l.7.34a4.66,4.66,0,0,1-4.64,3.48c-3.63,0-5.61-2-5.61-6.09,0-3.22,1.47-6.34,5.87-6.34,2.62,0,4.21,1.23,4.21,2.34,0,.92-.94,1.24-1.42,1.24s-.61-.25-.76-.63c-.48-1.31-1.18-2.11-2.29-2.11-1.67,0-3.1,1.45-3.1,5.06,0,2.27.68,5.27,3.56,5.27C76.39,66,77.36,65.12,78.11,63.43Z"/><path class="cls-5" d="M91.54,61c0,3.92-1.89,6.22-5.81,6.22S80,65,80,61s1.91-6.21,5.78-6.21S91.54,57.11,91.54,61ZM85.73,66.4C88,66.4,89,64.37,89,61s-1-5.37-3.29-5.37-3.27,2-3.27,5.37S83.53,66.4,85.73,66.4Z"/><path class="cls-5" d="M104.43,64.86c0,1.23.09,1.28,1.81,1.4V67h-5.9v-.7c1.74-.12,1.81-.17,1.81-1.4V59.15c0-2.11-.89-3-2.54-3a3.36,3.36,0,0,0-2.88,1.74,2.75,2.75,0,0,0-.24,1.34v5.66c0,1.23.1,1.28,1.82,1.4V67H92.4v-.7c1.75-.12,1.82-.17,1.82-1.4V57.23c0-.86-.15-1-.77-1.08L92.53,56v-.61l3.6-.6.34,1.83c1.5-1,2.61-1.83,4.4-1.83,2.23,0,3.56,1.4,3.56,3.84Z"/><path class="cls-5" d="M114.18,58.47c-.17-1.48-1-2.81-2.71-2.81a2,2,0,0,0-2.18,2c0,1.36,1.6,1.86,2.59,2.18,2.49.77,3.8,1.74,3.8,3.87s-1.65,3.58-4.53,3.58a5.93,5.93,0,0,1-3.77-1.16l-.24-3.17h.7c.48,2.06,1.57,3.48,3.53,3.48a2,2,0,0,0,2.25-2c0-1.65-1.52-2.21-2.61-2.54-2-.61-3.63-1.5-3.65-3.51,0-2.3,1.79-3.53,4.4-3.53a5.58,5.58,0,0,1,3.12.82v2.83Z"/><path class="cls-5" d="M126.37,67l-.24-1.45c-.7.34-2.37,1.74-4.43,1.74-1.79,0-3.43-.85-3.43-3.63V57.23c0-.86-.15-1-.78-1.08l-.92-.12v-.61l3.8-.6.17.14v8.23c0,1.88,1,2.76,2.44,2.76a3.34,3.34,0,0,0,3-1.82,3.93,3.93,0,0,0,.19-1.45V57.23c0-.86-.14-1-.77-1.08l-.92-.12v-.61l3.8-.6.17.14v9.9c0,1.23.14,1.28,1.81,1.4V67Z"/><path class="cls-5" d="M134.81,64.86c0,1.23.1,1.28,1.81,1.4V67h-5.9v-.7c1.75-.12,1.82-.17,1.82-1.4V51.43c0-.92-.15-1-.78-1.11l-.92-.1v-.6l3.8-.61.17.15Z"/><path class="cls-5" d="M140.9,56.08v7.49c0,1.84.78,2.42,1.6,2.42a4.26,4.26,0,0,0,1.72-.31l.19.51a6.21,6.21,0,0,1-3.09,1.06,2.49,2.49,0,0,1-2.69-2.76V56.08h-1.74v-1h1.84l1.47-3h.7v3H144v1Z"/><path class="cls-5" d="M153.85,63.89c0,1.52.41,2,.84,2.08a3,3,0,0,0,1.24,0l.14.58a6.79,6.79,0,0,1-2.85.72c-.85,0-1.24-.56-1.58-1.45a7.24,7.24,0,0,1-3.6,1.45,3.3,3.3,0,0,1-3.48-3.43,2.85,2.85,0,0,1,2.25-2.88c1.91-.61,4.25-1.21,4.86-1.84v-1c0-1.93-1.11-2.42-2.06-2.42s-2,.58-2.49,2.37c-.12.41-.27.68-.77.68S145,58.35,145,57.57c0-1.33,2.15-2.75,4.89-2.75,3.65,0,4,1.81,4,3.21Zm-2.18-3.8a20.38,20.38,0,0,1-2.78,1.16c-1.36.51-1.89,1.09-1.89,2.23A2.19,2.19,0,0,0,149.23,66a2.31,2.31,0,0,0,2.44-2.47Z"/><path class="cls-5" d="M168.46,64.86c0,1.23.1,1.28,1.81,1.4V67h-5.9v-.7c1.74-.12,1.81-.17,1.81-1.4V59.15c0-2.11-.89-3-2.54-3a3.33,3.33,0,0,0-2.87,1.74,2.63,2.63,0,0,0-.25,1.34v5.66c0,1.23.1,1.28,1.82,1.4V67h-5.9v-.7c1.74-.12,1.81-.17,1.81-1.4V57.23c0-.86-.15-1-.77-1.08l-.92-.12v-.61l3.6-.6.34,1.83c1.5-1,2.61-1.83,4.4-1.83,2.23,0,3.56,1.4,3.56,3.84Z"/><path class="cls-5" d="M174.56,56.08v7.49c0,1.84.77,2.42,1.59,2.42a4.26,4.26,0,0,0,1.72-.31l.19.51A6.21,6.21,0,0,1,175,67.25a2.49,2.49,0,0,1-2.69-2.76V56.08h-1.74v-1h1.84l1.47-3h.71v3h3.12v1Z"/><path class="cls-5" d="M185.92,58.47c-.17-1.48-1-2.81-2.71-2.81a2,2,0,0,0-2.17,2c0,1.36,1.59,1.86,2.58,2.18,2.5.77,3.8,1.74,3.8,3.87s-1.64,3.58-4.52,3.58a5.91,5.91,0,0,1-3.77-1.16l-.25-3.17h.71c.48,2.06,1.57,3.48,3.53,3.48a2,2,0,0,0,2.25-2c0-1.65-1.53-2.21-2.62-2.54-2-.61-3.62-1.5-3.65-3.51,0-2.3,1.79-3.53,4.4-3.53a5.56,5.56,0,0,1,3.12.82v2.83Z"/></svg>